<mxfile host="app.diagrams.net" modified="2024-09-06T16:49:33.556Z" agent="Mozilla/5.0 (X11; Linux x86_64) AppleWebKit/537.36 (KHTML, like Gecko) Chrome/128.0.0.0 Safari/537.36" etag="08FliEwYP6xd9F9XbONv" version="24.3.1" type="device">
  <diagram name="Page-1" id="KxO2Fr7uawZgueQzjiv0">
    <mxGraphModel dx="3143" dy="1420" grid="1" gridSize="10" guides="1" tooltips="1" connect="1" arrows="1" fold="1" page="0" pageScale="1" pageWidth="850" pageHeight="1100" math="0" shadow="0">
      <root>
        <mxCell id="0" />
        <mxCell id="1" parent="0" />
        <mxCell id="KnXcn2yvRtYVv5eLa_Bd-60" value="" style="group" vertex="1" connectable="0" parent="1">
          <mxGeometry x="40" y="120" width="898" height="458" as="geometry" />
        </mxCell>
        <mxCell id="KnXcn2yvRtYVv5eLa_Bd-14" style="edgeStyle=orthogonalEdgeStyle;rounded=0;orthogonalLoop=1;jettySize=auto;html=1;exitX=0.5;exitY=0;exitDx=0;exitDy=0;entryX=0;entryY=0.5;entryDx=0;entryDy=0;strokeWidth=3;fillColor=#e1d5e7;strokeColor=#9673a6;" edge="1" parent="KnXcn2yvRtYVv5eLa_Bd-60" source="KnXcn2yvRtYVv5eLa_Bd-1" target="KnXcn2yvRtYVv5eLa_Bd-2">
          <mxGeometry relative="1" as="geometry" />
        </mxCell>
        <mxCell id="KnXcn2yvRtYVv5eLa_Bd-1" value="&lt;font style=&quot;font-size: 20px;&quot;&gt;Image Tensor&lt;/font&gt;&lt;div style=&quot;line-height: 200%;&quot;&gt;&lt;font style=&quot;font-size: 15px;&quot;&gt;Shape: (B, 1, H, W)&lt;/font&gt;&lt;/div&gt;&lt;div style=&quot;line-height: 200%;&quot;&gt;&lt;i style=&quot;&quot;&gt;&lt;font style=&quot;font-size: 10px;&quot;&gt;B is the batch size, and H and W are the image height and width, respectively.&lt;/font&gt;&lt;/i&gt;&lt;br&gt;&lt;/div&gt;" style="whiteSpace=wrap;html=1;fillColor=#d5e8d4;strokeColor=#82b366;rounded=0;glass=0;shadow=0;" vertex="1" parent="KnXcn2yvRtYVv5eLa_Bd-60">
          <mxGeometry y="164" width="256" height="120" as="geometry" />
        </mxCell>
        <mxCell id="KnXcn2yvRtYVv5eLa_Bd-15" style="edgeStyle=orthogonalEdgeStyle;rounded=0;orthogonalLoop=1;jettySize=auto;html=1;exitX=1;exitY=0.5;exitDx=0;exitDy=0;entryX=0.5;entryY=0;entryDx=0;entryDy=0;fillColor=#e1d5e7;strokeColor=#9673a6;strokeWidth=3;" edge="1" parent="KnXcn2yvRtYVv5eLa_Bd-60" source="KnXcn2yvRtYVv5eLa_Bd-2" target="KnXcn2yvRtYVv5eLa_Bd-4">
          <mxGeometry relative="1" as="geometry" />
        </mxCell>
        <mxCell id="KnXcn2yvRtYVv5eLa_Bd-2" value="&lt;font style=&quot;font-size: 20px;&quot;&gt;DCT Encoder&lt;/font&gt;&lt;div style=&quot;font-size: 15px;&quot;&gt;&lt;font style=&quot;font-size: 15px;&quot;&gt;Block Size: &lt;i&gt;d&lt;/i&gt;&lt;/font&gt;&lt;/div&gt;" style="shape=process;whiteSpace=wrap;html=1;backgroundOutline=1;fillColor=#ffe6cc;strokeColor=#d79b00;rounded=1;" vertex="1" parent="KnXcn2yvRtYVv5eLa_Bd-60">
          <mxGeometry x="320" width="256" height="128" as="geometry" />
        </mxCell>
        <mxCell id="KnXcn2yvRtYVv5eLa_Bd-16" style="edgeStyle=orthogonalEdgeStyle;rounded=0;orthogonalLoop=1;jettySize=auto;html=1;exitX=0.5;exitY=1;exitDx=0;exitDy=0;entryX=1;entryY=0.5;entryDx=0;entryDy=0;strokeWidth=3;fillColor=#e1d5e7;strokeColor=#9673a6;" edge="1" parent="KnXcn2yvRtYVv5eLa_Bd-60" source="KnXcn2yvRtYVv5eLa_Bd-4" target="KnXcn2yvRtYVv5eLa_Bd-6">
          <mxGeometry relative="1" as="geometry" />
        </mxCell>
        <mxCell id="KnXcn2yvRtYVv5eLa_Bd-4" value="&lt;font style=&quot;font-size: 20px;&quot;&gt;DCT Encodings Tensor&lt;/font&gt;&lt;div style=&quot;line-height: 200%; font-size: 15px;&quot;&gt;&lt;font style=&quot;font-size: 15px;&quot;&gt;Shape: (B, d&lt;sup style=&quot;&quot;&gt;2&lt;/sup&gt;, H/d, W/d)&lt;/font&gt;&lt;/div&gt;&lt;div style=&quot;line-height: 200%; font-size: 15px;&quot;&gt;&lt;i style=&quot;&quot;&gt;&lt;font style=&quot;font-size: 10px;&quot;&gt;Channels are sorted in ascending frequency order&lt;/font&gt;&lt;/i&gt;&lt;br&gt;&lt;/div&gt;" style="whiteSpace=wrap;html=1;imageWidth=24;fillColor=#d5e8d4;strokeColor=#82b366;" vertex="1" parent="KnXcn2yvRtYVv5eLa_Bd-60">
          <mxGeometry x="642" y="164" width="256" height="120" as="geometry" />
        </mxCell>
        <mxCell id="KnXcn2yvRtYVv5eLa_Bd-13" style="edgeStyle=orthogonalEdgeStyle;rounded=0;orthogonalLoop=1;jettySize=auto;html=1;exitX=0;exitY=0.5;exitDx=0;exitDy=0;entryX=0.5;entryY=1;entryDx=0;entryDy=0;fillColor=#e1d5e7;strokeColor=#9673a6;strokeWidth=3;" edge="1" parent="KnXcn2yvRtYVv5eLa_Bd-60" source="KnXcn2yvRtYVv5eLa_Bd-6" target="KnXcn2yvRtYVv5eLa_Bd-1">
          <mxGeometry relative="1" as="geometry" />
        </mxCell>
        <mxCell id="KnXcn2yvRtYVv5eLa_Bd-6" value="&lt;font style=&quot;font-size: 20px;&quot;&gt;DCT Decoder&lt;/font&gt;&lt;div&gt;&lt;font style=&quot;font-size: 20px;&quot;&gt;Block Size:&amp;nbsp;&lt;i&gt;d&lt;/i&gt;&lt;/font&gt;&lt;/div&gt;" style="shape=process;whiteSpace=wrap;html=1;backgroundOutline=1;fillColor=#ffe6cc;strokeColor=#d79b00;rounded=1;" vertex="1" parent="KnXcn2yvRtYVv5eLa_Bd-60">
          <mxGeometry x="320" y="330" width="256" height="128" as="geometry" />
        </mxCell>
        <mxCell id="KnXcn2yvRtYVv5eLa_Bd-28" value="&lt;font style=&quot;font-size: 40px;&quot;&gt;Lossless Encoding&lt;/font&gt;" style="text;html=1;align=center;verticalAlign=middle;whiteSpace=wrap;rounded=0;" vertex="1" parent="KnXcn2yvRtYVv5eLa_Bd-60">
          <mxGeometry x="278" y="209" width="340" height="30" as="geometry" />
        </mxCell>
        <mxCell id="KnXcn2yvRtYVv5eLa_Bd-62" value="" style="group" vertex="1" connectable="0" parent="1">
          <mxGeometry x="-204" y="670" width="1386" height="486" as="geometry" />
        </mxCell>
        <mxCell id="KnXcn2yvRtYVv5eLa_Bd-40" style="edgeStyle=orthogonalEdgeStyle;rounded=0;orthogonalLoop=1;jettySize=auto;html=1;fillColor=#e1d5e7;strokeColor=#9673a6;strokeWidth=3;exitX=0.5;exitY=0;exitDx=0;exitDy=0;" edge="1" parent="KnXcn2yvRtYVv5eLa_Bd-62" source="KnXcn2yvRtYVv5eLa_Bd-32" target="KnXcn2yvRtYVv5eLa_Bd-34">
          <mxGeometry relative="1" as="geometry" />
        </mxCell>
        <mxCell id="KnXcn2yvRtYVv5eLa_Bd-32" value="&lt;font style=&quot;font-size: 20px;&quot;&gt;Image Tensor&lt;/font&gt;&lt;div style=&quot;line-height: 200%;&quot;&gt;&lt;font style=&quot;font-size: 15px;&quot;&gt;Shape: (B, 1, H, W)&lt;/font&gt;&lt;/div&gt;&lt;div style=&quot;line-height: 200%;&quot;&gt;&lt;i style=&quot;&quot;&gt;&lt;font style=&quot;font-size: 10px;&quot;&gt;B is the batch size, and H and W are the image height and width, respectively.&lt;/font&gt;&lt;/i&gt;&lt;br&gt;&lt;/div&gt;" style="whiteSpace=wrap;html=1;fillColor=#d5e8d4;strokeColor=#82b366;rounded=0;glass=0;shadow=0;" vertex="1" parent="KnXcn2yvRtYVv5eLa_Bd-62">
          <mxGeometry y="105" width="256" height="120" as="geometry" />
        </mxCell>
        <mxCell id="KnXcn2yvRtYVv5eLa_Bd-42" style="edgeStyle=orthogonalEdgeStyle;rounded=0;orthogonalLoop=1;jettySize=auto;html=1;exitX=1;exitY=0.5;exitDx=0;exitDy=0;entryX=0;entryY=0.5;entryDx=0;entryDy=0;strokeWidth=3;fillColor=#e1d5e7;strokeColor=#9673a6;" edge="1" parent="KnXcn2yvRtYVv5eLa_Bd-62" source="KnXcn2yvRtYVv5eLa_Bd-34" target="KnXcn2yvRtYVv5eLa_Bd-36">
          <mxGeometry relative="1" as="geometry" />
        </mxCell>
        <mxCell id="KnXcn2yvRtYVv5eLa_Bd-34" value="&lt;font style=&quot;font-size: 20px;&quot;&gt;DCT Encoder&lt;/font&gt;&lt;div style=&quot;font-size: 15px;&quot;&gt;&lt;font style=&quot;font-size: 15px;&quot;&gt;Block Size: &lt;i&gt;d&lt;/i&gt;&lt;/font&gt;&lt;/div&gt;" style="shape=process;whiteSpace=wrap;html=1;backgroundOutline=1;fillColor=#ffe6cc;strokeColor=#d79b00;rounded=1;" vertex="1" parent="KnXcn2yvRtYVv5eLa_Bd-62">
          <mxGeometry x="280" width="256" height="128" as="geometry" />
        </mxCell>
        <mxCell id="KnXcn2yvRtYVv5eLa_Bd-44" style="edgeStyle=orthogonalEdgeStyle;rounded=0;orthogonalLoop=1;jettySize=auto;html=1;entryX=0;entryY=0.5;entryDx=0;entryDy=0;fillColor=#e1d5e7;strokeColor=#9673a6;strokeWidth=3;" edge="1" parent="KnXcn2yvRtYVv5eLa_Bd-62" source="KnXcn2yvRtYVv5eLa_Bd-36" target="KnXcn2yvRtYVv5eLa_Bd-43">
          <mxGeometry relative="1" as="geometry" />
        </mxCell>
        <mxCell id="KnXcn2yvRtYVv5eLa_Bd-36" value="&lt;font style=&quot;font-size: 20px;&quot;&gt;DCT Encodings Tensor&lt;/font&gt;&lt;div style=&quot;line-height: 200%; font-size: 15px;&quot;&gt;&lt;font style=&quot;font-size: 15px;&quot;&gt;Shape: (B, d&lt;sup style=&quot;&quot;&gt;2&lt;/sup&gt;, H/d, W/d)&lt;/font&gt;&lt;/div&gt;&lt;div style=&quot;line-height: 200%; font-size: 15px;&quot;&gt;&lt;i style=&quot;&quot;&gt;&lt;font style=&quot;font-size: 10px;&quot;&gt;Channels are sorted in ascending frequency order&lt;/font&gt;&lt;/i&gt;&lt;br&gt;&lt;/div&gt;" style="whiteSpace=wrap;html=1;imageWidth=24;fillColor=#d5e8d4;strokeColor=#82b366;" vertex="1" parent="KnXcn2yvRtYVv5eLa_Bd-62">
          <mxGeometry x="601" y="4" width="256" height="120" as="geometry" />
        </mxCell>
        <mxCell id="KnXcn2yvRtYVv5eLa_Bd-55" style="edgeStyle=orthogonalEdgeStyle;rounded=0;orthogonalLoop=1;jettySize=auto;html=1;exitX=0;exitY=0.5;exitDx=0;exitDy=0;entryX=0.5;entryY=1;entryDx=0;entryDy=0;fillColor=#e1d5e7;strokeColor=#9673a6;strokeWidth=3;" edge="1" parent="KnXcn2yvRtYVv5eLa_Bd-62" source="KnXcn2yvRtYVv5eLa_Bd-38" target="KnXcn2yvRtYVv5eLa_Bd-41">
          <mxGeometry relative="1" as="geometry" />
        </mxCell>
        <mxCell id="KnXcn2yvRtYVv5eLa_Bd-38" value="&lt;font style=&quot;font-size: 20px;&quot;&gt;DCT Decoder&lt;/font&gt;&lt;div&gt;&lt;font style=&quot;font-size: 20px;&quot;&gt;Block Size:&amp;nbsp;&lt;i&gt;d&lt;/i&gt;&lt;/font&gt;&lt;/div&gt;" style="shape=process;whiteSpace=wrap;html=1;backgroundOutline=1;fillColor=#ffe6cc;strokeColor=#d79b00;rounded=1;" vertex="1" parent="KnXcn2yvRtYVv5eLa_Bd-62">
          <mxGeometry x="280" y="358" width="256" height="128" as="geometry" />
        </mxCell>
        <mxCell id="KnXcn2yvRtYVv5eLa_Bd-39" value="&lt;font style=&quot;font-size: 50px;&quot;&gt;Lossy Compression&lt;/font&gt;" style="text;html=1;align=center;verticalAlign=middle;whiteSpace=wrap;rounded=0;" vertex="1" parent="KnXcn2yvRtYVv5eLa_Bd-62">
          <mxGeometry x="472" y="225" width="450" height="30" as="geometry" />
        </mxCell>
        <mxCell id="KnXcn2yvRtYVv5eLa_Bd-41" value="&lt;font style=&quot;font-size: 20px;&quot;&gt;Reconstruct Image Tensor&lt;/font&gt;&lt;div style=&quot;line-height: 200%;&quot;&gt;&lt;font style=&quot;font-size: 15px;&quot;&gt;Shape: (B, 1, H, W)&lt;/font&gt;&lt;/div&gt;&lt;div style=&quot;line-height: 200%;&quot;&gt;&lt;i style=&quot;&quot;&gt;&lt;font style=&quot;font-size: 10px;&quot;&gt;B is the batch size, and H and W are the image height and width, respectively.&lt;/font&gt;&lt;/i&gt;&lt;br&gt;&lt;/div&gt;" style="whiteSpace=wrap;html=1;fillColor=#d5e8d4;strokeColor=#82b366;rounded=0;glass=0;shadow=0;" vertex="1" parent="KnXcn2yvRtYVv5eLa_Bd-62">
          <mxGeometry y="255" width="256" height="120" as="geometry" />
        </mxCell>
        <mxCell id="KnXcn2yvRtYVv5eLa_Bd-50" style="edgeStyle=orthogonalEdgeStyle;rounded=0;orthogonalLoop=1;jettySize=auto;html=1;fillColor=#e1d5e7;strokeColor=#9673a6;strokeWidth=3;exitX=1.003;exitY=0.573;exitDx=0;exitDy=0;exitPerimeter=0;entryX=0.5;entryY=0;entryDx=0;entryDy=0;" edge="1" parent="KnXcn2yvRtYVv5eLa_Bd-62" source="KnXcn2yvRtYVv5eLa_Bd-43" target="KnXcn2yvRtYVv5eLa_Bd-45">
          <mxGeometry relative="1" as="geometry">
            <mxPoint x="1286" y="70" as="sourcePoint" />
            <mxPoint x="1376" y="130" as="targetPoint" />
          </mxGeometry>
        </mxCell>
        <mxCell id="KnXcn2yvRtYVv5eLa_Bd-43" value="&lt;div style=&quot;line-height: 200%;&quot;&gt;&lt;span style=&quot;font-size: 20px;&quot;&gt;Low-pass filter&lt;/span&gt;&lt;/div&gt;&lt;div style=&quot;line-height: 200%;&quot;&gt;&lt;font style=&quot;&quot;&gt;&lt;span style=&quot;font-size: 15px;&quot;&gt;Stopband: &lt;/span&gt;&lt;i style=&quot;&quot;&gt;&lt;span style=&quot;font-size: 15px;&quot;&gt;s (0 ≤ s ≤ d&lt;/span&gt;&lt;sup style=&quot;font-size: 15px;&quot;&gt;2&lt;/sup&gt;&lt;span style=&quot;font-size: 15px;&quot;&gt;)&lt;/span&gt;&lt;/i&gt;&lt;/font&gt;&lt;/div&gt;" style="shape=process;whiteSpace=wrap;html=1;backgroundOutline=1;fillColor=#ffe6cc;strokeColor=#d79b00;rounded=1;" vertex="1" parent="KnXcn2yvRtYVv5eLa_Bd-62">
          <mxGeometry x="922" width="256" height="128" as="geometry" />
        </mxCell>
        <mxCell id="KnXcn2yvRtYVv5eLa_Bd-51" style="edgeStyle=orthogonalEdgeStyle;rounded=0;orthogonalLoop=1;jettySize=auto;html=1;exitX=0.5;exitY=1;exitDx=0;exitDy=0;strokeWidth=3;fillColor=#e1d5e7;strokeColor=#9673a6;entryX=1;entryY=0.5;entryDx=0;entryDy=0;" edge="1" parent="KnXcn2yvRtYVv5eLa_Bd-62" source="KnXcn2yvRtYVv5eLa_Bd-45" target="KnXcn2yvRtYVv5eLa_Bd-48">
          <mxGeometry relative="1" as="geometry" />
        </mxCell>
        <mxCell id="KnXcn2yvRtYVv5eLa_Bd-45" value="&lt;font style=&quot;font-size: 20px;&quot;&gt;Compressed DCT Encodings Tensor&lt;/font&gt;&lt;div style=&quot;line-height: 200%; font-size: 15px;&quot;&gt;&lt;font style=&quot;font-size: 15px;&quot;&gt;Shape: (B, d&lt;sup style=&quot;&quot;&gt;2&lt;/sup&gt;-s, H/d, W/d)&lt;/font&gt;&lt;/div&gt;&lt;div style=&quot;line-height: 200%; font-size: 15px;&quot;&gt;&lt;i style=&quot;&quot;&gt;&lt;font style=&quot;font-size: 10px;&quot;&gt;Channels are sorted in ascending frequency order&lt;/font&gt;&lt;/i&gt;&lt;br&gt;&lt;/div&gt;" style="whiteSpace=wrap;html=1;imageWidth=24;fillColor=#d5e8d4;strokeColor=#82b366;" vertex="1" parent="KnXcn2yvRtYVv5eLa_Bd-62">
          <mxGeometry x="1130" y="180" width="256" height="120" as="geometry" />
        </mxCell>
        <mxCell id="KnXcn2yvRtYVv5eLa_Bd-53" style="edgeStyle=orthogonalEdgeStyle;rounded=0;orthogonalLoop=1;jettySize=auto;html=1;exitX=0;exitY=0.5;exitDx=0;exitDy=0;entryX=1;entryY=0.5;entryDx=0;entryDy=0;fillColor=#e1d5e7;strokeColor=#9673a6;strokeWidth=3;" edge="1" parent="KnXcn2yvRtYVv5eLa_Bd-62" source="KnXcn2yvRtYVv5eLa_Bd-48" target="KnXcn2yvRtYVv5eLa_Bd-52">
          <mxGeometry relative="1" as="geometry" />
        </mxCell>
        <mxCell id="KnXcn2yvRtYVv5eLa_Bd-48" value="&lt;div style=&quot;line-height: 200%;&quot;&gt;&lt;span style=&quot;font-size: 20px;&quot;&gt;Zero Padding&lt;/span&gt;&lt;/div&gt;&lt;div style=&quot;line-height: 200%;&quot;&gt;&lt;span style=&quot;font-size: 15px;&quot;&gt;Padding: s&lt;/span&gt;&lt;/div&gt;" style="shape=process;whiteSpace=wrap;html=1;backgroundOutline=1;fillColor=#ffe6cc;strokeColor=#d79b00;rounded=1;" vertex="1" parent="KnXcn2yvRtYVv5eLa_Bd-62">
          <mxGeometry x="922" y="358" width="256" height="128" as="geometry" />
        </mxCell>
        <mxCell id="KnXcn2yvRtYVv5eLa_Bd-54" style="edgeStyle=orthogonalEdgeStyle;rounded=0;orthogonalLoop=1;jettySize=auto;html=1;exitX=0;exitY=0.5;exitDx=0;exitDy=0;entryX=1;entryY=0.5;entryDx=0;entryDy=0;fillColor=#e1d5e7;strokeColor=#9673a6;strokeWidth=3;" edge="1" parent="KnXcn2yvRtYVv5eLa_Bd-62" source="KnXcn2yvRtYVv5eLa_Bd-52" target="KnXcn2yvRtYVv5eLa_Bd-38">
          <mxGeometry relative="1" as="geometry" />
        </mxCell>
        <mxCell id="KnXcn2yvRtYVv5eLa_Bd-52" value="&lt;font style=&quot;font-size: 20px;&quot;&gt;Decompressed DCT Encodings Tensor&lt;/font&gt;&lt;div style=&quot;line-height: 200%; font-size: 15px;&quot;&gt;&lt;font style=&quot;font-size: 15px;&quot;&gt;Shape: (B, d&lt;sup style=&quot;&quot;&gt;2&lt;/sup&gt;, H/d, W/d)&lt;/font&gt;&lt;/div&gt;&lt;div style=&quot;line-height: 200%; font-size: 15px;&quot;&gt;&lt;i style=&quot;&quot;&gt;&lt;font style=&quot;font-size: 10px;&quot;&gt;Channels are sorted in ascending frequency order&lt;/font&gt;&lt;/i&gt;&lt;br&gt;&lt;/div&gt;" style="whiteSpace=wrap;html=1;imageWidth=24;fillColor=#d5e8d4;strokeColor=#82b366;" vertex="1" parent="KnXcn2yvRtYVv5eLa_Bd-62">
          <mxGeometry x="601" y="362" width="256" height="120" as="geometry" />
        </mxCell>
      </root>
    </mxGraphModel>
  </diagram>
</mxfile>
